<svg width="38" height="38" viewBox="0 0 38 38" fill="none" xmlns="http://www.w3.org/2000/svg">
<rect width="38" height="38" rx="5" fill="white"/>
<path d="M9.39576 29.677H29.1318L30.5047 23.5075C30.568 23.2231 30.4986 22.9254 30.316 22.6981C30.1335 22.4709 29.8576 22.3386 29.5658 22.3386H8.9618C8.67005 22.3386 8.39408 22.4709 8.21159 22.6981C8.02898 22.9254 7.9596 23.2231 8.02295 23.5075L9.39576 29.677ZM19.2638 26.0078C19.7947 26.0078 20.2256 26.4382 20.2256 26.9684C20.2256 27.4985 19.7947 27.9289 19.2638 27.9289C18.7329 27.9289 18.302 27.4985 18.302 26.9684C18.302 26.4382 18.7329 26.0078 19.2638 26.0078Z" fill="#1A72F8"/>
<path d="M19.2638 18.1556C21.8053 18.1556 23.8655 16.098 23.8655 13.56C23.8655 11.0219 21.8053 8.96436 19.2638 8.96436C16.7224 8.96436 14.6621 11.0219 14.6621 13.56C14.6621 16.098 16.7224 18.1556 19.2638 18.1556Z" fill="#1A72F8"/>
<path d="M21.6023 17.9524H19.4834H17.3645C15.3963 17.9524 13.6369 19.1219 12.4834 20.9484H26.4834C25.3299 19.1219 23.5704 17.9524 21.6023 17.9524Z" fill="#1A72F8"/>
<rect x="17.4399" y="25.1208" width="5.47159" height="3.64288" fill="#1A72F8"/>
</svg>
